<?xml version="1.0" ?><svg viewBox="0 0 512 512" xmlns="http://www.w3.org/2000/svg"><title/><g data-name="1" id="_1"><path d="M159,450H69.13a15,15,0,0,1-15-15V313a15,15,0,0,1,15-15H159a15,15,0,0,1,15,15V435A15,15,0,0,1,159,450ZM84.13,420H144V328H84.13Z"/><path d="M300.07,450H210.2a15,15,0,0,1-15-15V260.11a15,15,0,0,1,15-15h89.87a15,15,0,0,1,15,15V435A15,15,0,0,1,300.07,450ZM225.2,420h59.87V275.11H225.2Z"/><path d="M441.13,450H351.27a15,15,0,0,1-15-15V199.74a15,15,0,0,1,15-15h89.86a15,15,0,0,1,15,15V435A15,15,0,0,1,441.13,450Zm-74.86-30h59.86V214.74H366.27Z"/><path d="M353.07,153.92a15,15,0,0,1-13.35-21.82L356.58,99,323.49,82.15a15,15,0,1,1,13.62-26.73l46.46,23.67a15,15,0,0,1,6.55,20.17l-23.67,46.46A15,15,0,0,1,353.07,153.92Z"/><path d="M98.86,197.75a15,15,0,0,1-4.63-29.27L367.37,79.73a15,15,0,0,1,9.27,28.53L103.5,197A15,15,0,0,1,98.86,197.75Z"/></g></svg>